<mxfile host="app.diagrams.net" modified="2021-04-24T12:11:09.483Z" agent="5.0 (Windows)" etag="3lcwzM4YCPKZclpJj47Y" version="14.4.2" type="github">
  <diagram id="L0z4_unKu8oOphugNSzU" name="Page-1">
    <mxGraphModel dx="1422" dy="763" grid="1" gridSize="10" guides="1" tooltips="1" connect="1" arrows="1" fold="1" page="1" pageScale="1" pageWidth="827" pageHeight="1169" background="#FFFFFF" math="0" shadow="0">
      <root>
        <mxCell id="0" />
        <mxCell id="1" parent="0" />
        <mxCell id="NusPmh-P-yytg4hFRBMj-1" value="&lt;div&gt;Gracz&lt;/div&gt;" style="shape=umlActor;verticalLabelPosition=bottom;verticalAlign=top;html=1;outlineConnect=0;" vertex="1" parent="1">
          <mxGeometry x="120" y="160" width="40" height="80" as="geometry" />
        </mxCell>
        <mxCell id="NusPmh-P-yytg4hFRBMj-2" value="" style="endArrow=none;html=1;" edge="1" parent="1">
          <mxGeometry width="50" height="50" relative="1" as="geometry">
            <mxPoint x="170" y="150" as="sourcePoint" />
            <mxPoint x="280" y="90" as="targetPoint" />
            <Array as="points" />
          </mxGeometry>
        </mxCell>
        <mxCell id="NusPmh-P-yytg4hFRBMj-4" value="" style="ellipse;whiteSpace=wrap;html=1;fillColor=#cdeb8b;strokeColor=#36393d;gradientColor=#ffffff;gradientDirection=north;" vertex="1" parent="1">
          <mxGeometry x="290" y="40" width="190" height="80" as="geometry" />
        </mxCell>
        <mxCell id="NusPmh-P-yytg4hFRBMj-5" value="Ruch postaci za pomocą myszki" style="text;html=1;strokeColor=none;fillColor=none;align=center;verticalAlign=middle;whiteSpace=wrap;rounded=0;" vertex="1" parent="1">
          <mxGeometry x="310" y="50" width="150" height="60" as="geometry" />
        </mxCell>
        <mxCell id="NusPmh-P-yytg4hFRBMj-6" value="" style="endArrow=none;html=1;" edge="1" parent="1">
          <mxGeometry width="50" height="50" relative="1" as="geometry">
            <mxPoint x="170" y="180" as="sourcePoint" />
            <mxPoint x="280" y="180" as="targetPoint" />
            <Array as="points" />
          </mxGeometry>
        </mxCell>
        <mxCell id="NusPmh-P-yytg4hFRBMj-8" value="Gracz w zasięgu interakcji z obiektem" style="ellipse;whiteSpace=wrap;html=1;fillColor=#cdeb8b;strokeColor=#36393d;gradientColor=#ffffff;gradientDirection=north;" vertex="1" parent="1">
          <mxGeometry x="290" y="140" width="190" height="80" as="geometry" />
        </mxCell>
        <mxCell id="NusPmh-P-yytg4hFRBMj-10" value="Obrót kamery" style="ellipse;whiteSpace=wrap;html=1;fillColor=#cdeb8b;strokeColor=#36393d;gradientColor=#ffffff;gradientDirection=north;" vertex="1" parent="1">
          <mxGeometry x="610" y="60" width="190" height="40" as="geometry" />
        </mxCell>
        <mxCell id="NusPmh-P-yytg4hFRBMj-12" value="Extend" style="endArrow=block;endSize=1;endFill=0;html=1;startArrow=block;startFill=0;targetPerimeterSpacing=5;startSize=16;" edge="1" parent="1">
          <mxGeometry y="-10" width="160" relative="1" as="geometry">
            <mxPoint x="490" y="80" as="sourcePoint" />
            <mxPoint x="600" y="80" as="targetPoint" />
            <Array as="points">
              <mxPoint x="540" y="80" />
              <mxPoint x="560" y="80" />
            </Array>
            <mxPoint as="offset" />
          </mxGeometry>
        </mxCell>
        <mxCell id="NusPmh-P-yytg4hFRBMj-13" value="Extend" style="endArrow=block;endSize=1;endFill=0;html=1;startArrow=block;startFill=0;targetPerimeterSpacing=5;startSize=16;" edge="1" parent="1">
          <mxGeometry y="-10" width="160" relative="1" as="geometry">
            <mxPoint x="490" y="160" as="sourcePoint" />
            <mxPoint x="600" y="150" as="targetPoint" />
            <Array as="points" />
            <mxPoint as="offset" />
          </mxGeometry>
        </mxCell>
        <mxCell id="NusPmh-P-yytg4hFRBMj-14" value="Zebranie przedmiotu" style="ellipse;whiteSpace=wrap;html=1;fillColor=#cdeb8b;strokeColor=#36393d;gradientColor=#ffffff;gradientDirection=north;" vertex="1" parent="1">
          <mxGeometry x="610" y="120" width="190" height="40" as="geometry" />
        </mxCell>
        <mxCell id="NusPmh-P-yytg4hFRBMj-15" value="&lt;div&gt;Zwrócenie uwagi przeciwnika&lt;/div&gt;" style="ellipse;whiteSpace=wrap;html=1;fillColor=#cdeb8b;strokeColor=#36393d;gradientColor=#ffffff;gradientDirection=north;" vertex="1" parent="1">
          <mxGeometry x="610" y="180" width="190" height="40" as="geometry" />
        </mxCell>
        <mxCell id="NusPmh-P-yytg4hFRBMj-16" value="Extend" style="endArrow=block;endSize=1;endFill=0;html=1;startArrow=block;startFill=0;targetPerimeterSpacing=5;startSize=16;" edge="1" parent="1">
          <mxGeometry y="-10" width="160" relative="1" as="geometry">
            <mxPoint x="490" y="190" as="sourcePoint" />
            <mxPoint x="600" y="200" as="targetPoint" />
            <Array as="points" />
            <mxPoint as="offset" />
          </mxGeometry>
        </mxCell>
        <mxCell id="NusPmh-P-yytg4hFRBMj-17" value="&lt;div&gt;Aktywacja teleportu&lt;/div&gt;" style="ellipse;whiteSpace=wrap;html=1;fillColor=#cdeb8b;strokeColor=#36393d;gradientColor=#ffffff;gradientDirection=north;" vertex="1" parent="1">
          <mxGeometry x="610" y="240" width="190" height="40" as="geometry" />
        </mxCell>
        <mxCell id="NusPmh-P-yytg4hFRBMj-18" value="Extend" style="endArrow=block;endSize=1;endFill=0;html=1;startArrow=block;startFill=0;targetPerimeterSpacing=5;startSize=16;" edge="1" parent="1">
          <mxGeometry y="-10" width="160" relative="1" as="geometry">
            <mxPoint x="490" y="210" as="sourcePoint" />
            <mxPoint x="600" y="260" as="targetPoint" />
            <Array as="points" />
            <mxPoint as="offset" />
          </mxGeometry>
        </mxCell>
        <mxCell id="NusPmh-P-yytg4hFRBMj-19" value="&lt;div&gt;Walka&lt;/div&gt;" style="ellipse;whiteSpace=wrap;html=1;fillColor=#cdeb8b;strokeColor=#36393d;gradientColor=#ffffff;gradientDirection=north;" vertex="1" parent="1">
          <mxGeometry x="290" y="300" width="190" height="80" as="geometry" />
        </mxCell>
        <mxCell id="NusPmh-P-yytg4hFRBMj-20" value="" style="endArrow=none;html=1;" edge="1" parent="1">
          <mxGeometry width="50" height="50" relative="1" as="geometry">
            <mxPoint x="170" y="260" as="sourcePoint" />
            <mxPoint x="280" y="310" as="targetPoint" />
            <Array as="points" />
          </mxGeometry>
        </mxCell>
        <mxCell id="NusPmh-P-yytg4hFRBMj-21" value="&lt;div&gt;Słaby atak (szybki)&lt;br&gt;&lt;/div&gt;" style="ellipse;whiteSpace=wrap;html=1;fillColor=#cdeb8b;strokeColor=#36393d;gradientColor=#ffffff;gradientDirection=north;" vertex="1" parent="1">
          <mxGeometry x="610" y="320" width="190" height="40" as="geometry" />
        </mxCell>
        <mxCell id="NusPmh-P-yytg4hFRBMj-22" value="&lt;div&gt;Silny atak (wolny)&lt;br&gt;&lt;/div&gt;" style="ellipse;whiteSpace=wrap;html=1;fillColor=#cdeb8b;strokeColor=#36393d;gradientColor=#ffffff;gradientDirection=north;" vertex="1" parent="1">
          <mxGeometry x="610" y="380" width="190" height="40" as="geometry" />
        </mxCell>
        <mxCell id="NusPmh-P-yytg4hFRBMj-23" value="Extend" style="endArrow=block;endSize=1;endFill=0;html=1;startArrow=block;startFill=0;targetPerimeterSpacing=5;startSize=16;" edge="1" parent="1">
          <mxGeometry y="-10" width="160" relative="1" as="geometry">
            <mxPoint x="490" y="339.5" as="sourcePoint" />
            <mxPoint x="600" y="339.5" as="targetPoint" />
            <Array as="points" />
            <mxPoint as="offset" />
          </mxGeometry>
        </mxCell>
        <mxCell id="NusPmh-P-yytg4hFRBMj-24" value="Extend" style="endArrow=block;endSize=1;endFill=0;html=1;startArrow=block;startFill=0;targetPerimeterSpacing=5;startSize=16;" edge="1" parent="1">
          <mxGeometry y="-10" width="160" relative="1" as="geometry">
            <mxPoint x="490" y="370" as="sourcePoint" />
            <mxPoint x="600" y="400" as="targetPoint" />
            <Array as="points" />
            <mxPoint as="offset" />
          </mxGeometry>
        </mxCell>
        <mxCell id="NusPmh-P-yytg4hFRBMj-25" value="&lt;div&gt;Ekwipunek&lt;/div&gt;" style="ellipse;whiteSpace=wrap;html=1;fillColor=#cdeb8b;strokeColor=#36393d;gradientColor=#ffffff;gradientDirection=north;" vertex="1" parent="1">
          <mxGeometry x="290" y="480" width="190" height="80" as="geometry" />
        </mxCell>
        <mxCell id="NusPmh-P-yytg4hFRBMj-26" value="" style="endArrow=none;html=1;" edge="1" parent="1">
          <mxGeometry width="50" height="50" relative="1" as="geometry">
            <mxPoint x="160" y="290" as="sourcePoint" />
            <mxPoint x="280" y="480" as="targetPoint" />
            <Array as="points" />
          </mxGeometry>
        </mxCell>
        <mxCell id="NusPmh-P-yytg4hFRBMj-27" value="&lt;div&gt;Organizacja ekwipunku&lt;br&gt;&lt;/div&gt;" style="ellipse;whiteSpace=wrap;html=1;fillColor=#cdeb8b;strokeColor=#36393d;gradientColor=#ffffff;gradientDirection=north;" vertex="1" parent="1">
          <mxGeometry x="610" y="480" width="190" height="40" as="geometry" />
        </mxCell>
        <mxCell id="NusPmh-P-yytg4hFRBMj-28" value="&lt;div&gt;Wyrzucanie przedmiotów&lt;br&gt;&lt;/div&gt;" style="ellipse;whiteSpace=wrap;html=1;fillColor=#cdeb8b;strokeColor=#36393d;gradientColor=#ffffff;gradientDirection=north;" vertex="1" parent="1">
          <mxGeometry x="610" y="545" width="190" height="40" as="geometry" />
        </mxCell>
        <mxCell id="NusPmh-P-yytg4hFRBMj-29" value="&lt;div&gt;Zakładanie/zdejmowanie przedmiotów&lt;br&gt;&lt;/div&gt;" style="ellipse;whiteSpace=wrap;html=1;fillColor=#cdeb8b;strokeColor=#36393d;gradientColor=#ffffff;gradientDirection=north;" vertex="1" parent="1">
          <mxGeometry x="610" y="600" width="190" height="50" as="geometry" />
        </mxCell>
        <mxCell id="NusPmh-P-yytg4hFRBMj-30" value="Extend" style="endArrow=block;endSize=1;endFill=0;html=1;startArrow=block;startFill=0;targetPerimeterSpacing=5;startSize=16;" edge="1" parent="1">
          <mxGeometry y="-10" width="160" relative="1" as="geometry">
            <mxPoint x="490" y="499.5" as="sourcePoint" />
            <mxPoint x="600" y="499.5" as="targetPoint" />
            <Array as="points" />
            <mxPoint as="offset" />
          </mxGeometry>
        </mxCell>
        <mxCell id="NusPmh-P-yytg4hFRBMj-31" value="Extend" style="endArrow=block;endSize=1;endFill=0;html=1;startArrow=block;startFill=0;targetPerimeterSpacing=5;startSize=16;" edge="1" parent="1">
          <mxGeometry y="-10" width="160" relative="1" as="geometry">
            <mxPoint x="490" y="530" as="sourcePoint" />
            <mxPoint x="600" y="560" as="targetPoint" />
            <Array as="points" />
            <mxPoint as="offset" />
          </mxGeometry>
        </mxCell>
        <mxCell id="NusPmh-P-yytg4hFRBMj-32" value="Extend" style="endArrow=block;endSize=1;endFill=0;html=1;startArrow=block;startFill=0;targetPerimeterSpacing=5;startSize=16;" edge="1" parent="1">
          <mxGeometry y="-10" width="160" relative="1" as="geometry">
            <mxPoint x="490" y="560" as="sourcePoint" />
            <mxPoint x="600" y="620" as="targetPoint" />
            <Array as="points" />
            <mxPoint as="offset" />
          </mxGeometry>
        </mxCell>
      </root>
    </mxGraphModel>
  </diagram>
</mxfile>
